<svg width="64" height="64" viewBox="0 0 64 64" fill="none" xmlns="http://www.w3.org/2000/svg">
<rect width="64" height="64" rx="32" fill="#F8F8FF"/>
<g clip-path="url(#clip0_2042_1375)">
<path fill-rule="evenodd" clip-rule="evenodd" d="M38.4943 43.0568L50.7283 26.624L50.7283 42.5117C50.7283 45.8881 47.9843 48.6253 44.5993 48.6253C41.3985 48.6253 38.7707 46.1779 38.4943 43.0568Z" fill="#18DD90"/>
<path fill-rule="evenodd" clip-rule="evenodd" d="M28.3747 43.2545C31.0923 45.2675 34.9313 44.7019 36.9495 41.9912L49.5562 25.0578C51.5744 22.3471 51.0074 18.5177 48.2898 16.5046C45.5722 14.4916 41.7332 15.0571 39.715 17.7679L27.1083 34.7013C25.0901 37.412 25.6571 41.2414 28.3747 43.2545Z" fill="#1B1B1B"/>
<path fill-rule="evenodd" clip-rule="evenodd" d="M19.4702 48.625C16.0853 48.625 13.3412 45.8878 13.3412 42.5114L13.3412 21.4193C13.3412 18.0429 16.0853 15.3057 19.4702 15.3057C22.8552 15.3057 25.5993 18.0429 25.5993 21.4193L25.5993 42.5114C25.5993 45.8878 22.8552 48.625 19.4702 48.625Z" fill="#1B1B1B"/>
<path fill-rule="evenodd" clip-rule="evenodd" d="M35.6905 43.2555C32.9729 45.2685 29.1339 44.7029 27.1158 41.9922L14.509 25.0588C12.4909 22.348 13.0579 18.5186 15.7754 16.5056C18.493 14.4925 22.3321 15.0581 24.3502 17.7689L36.957 34.7023C38.9751 37.413 38.4081 41.2424 35.6905 43.2555Z" fill="#1B1B1B"/>
</g>
<defs>
<clipPath id="clip0_2042_1375">
<rect width="38" height="33.625" fill="white" transform="translate(13 15)"/>
</clipPath>
</defs>
</svg>
