<svg width="64" height="64" viewBox="0 0 64 64" fill="none" xmlns="http://www.w3.org/2000/svg">
<g clip-path="url(#clip0_12_132)">
<path d="M0 12.5C0 5.59644 5.59644 0 12.5 0H51.5C58.4036 0 64 5.59644 64 12.5V51.5C64 58.4036 58.4036 64 51.5 64H12.5C5.59644 64 0 58.4036 0 51.5V12.5Z" fill="white"/>
<path d="M49.8125 24.125C49.8125 26.6667 49.2292 29 48.0625 31.125C46.8958 33.2083 45.1042 34.8958 42.6875 36.1875C40.2708 37.4792 37.2708 38.125 33.6875 38.125H27.0625V53.875H16.375V10H33.6875C37.1875 10 40.1458 10.6042 42.5625 11.8125C44.9792 13.0208 46.7917 14.6875 48 16.8125C49.2083 18.9375 49.8125 21.375 49.8125 24.125ZM32.875 29.625C34.9167 29.625 36.4375 29.1458 37.4375 28.1875C38.4375 27.2292 38.9375 25.875 38.9375 24.125C38.9375 22.375 38.4375 21.0208 37.4375 20.0625C36.4375 19.1042 34.9167 18.625 32.875 18.625H27.0625V29.625H32.875Z" fill="black"/>
</g>
<defs>
<clipPath id="clip0_12_132">
<rect width="64" height="64" fill="white"/>
</clipPath>
</defs>
</svg>
